<?xml version="1.0" encoding="utf-8"?>
<!-- Generator: Adobe Illustrator 20.1.0, SVG Export Plug-In . SVG Version: 6.00 Build 0)  -->
<svg version="1.1" id="Layer_1" xmlns="http://www.w3.org/2000/svg" xmlns:xlink="http://www.w3.org/1999/xlink" x="0px" y="0px"
	 width="2419.6px" height="130.5px" viewBox="0 0 2419.6 130.5" enable-background="new 0 0 2419.6 130.5" xml:space="preserve">
<rect id="XMLID_367_" x="1998.5" y="124.8" fill="#FFFFFF" width="112.1" height="4.5"/>
<rect id="XMLID_364_" x="1998.5" y="0" fill="#FFFFFF" width="112.1" height="4.5"/>
<rect id="XMLID_361_" x="1998.5" y="78" fill="#FFFFFF" width="51.3" height="51.3"/>
<rect id="XMLID_358_" x="2059.3" y="78" fill="#FFFFFF" width="51.3" height="51.3"/>
<rect id="XMLID_355_" x="2059.3" y="26.8" fill="#FFFFFF" width="51.3" height="51.3"/>
<rect id="XMLID_352_" x="2059.3" y="1.1" fill="#FFFFFF" width="51.3" height="51.3"/>
<rect id="XMLID_349_" x="1998.5" y="0" fill="#FFFFFF" width="51.3" height="51.3"/>
<rect id="XMLID_346_" x="0" y="124.8" fill="#FFFFFF" width="112.1" height="4.5"/>
<rect id="XMLID_343_" x="0" y="1.1" fill="#FFFFFF" width="112.1" height="4.5"/>
<rect id="XMLID_340_" x="0" y="78" fill="#FFFFFF" width="51.3" height="51.3"/>
<rect id="XMLID_337_" x="60.8" y="78" fill="#FFFFFF" width="51.3" height="51.3"/>
<rect id="XMLID_334_" x="60.8" y="26.8" fill="#FFFFFF" width="51.3" height="51.3"/>
<rect id="XMLID_331_" x="60.8" y="1.1" fill="#FFFFFF" width="51.3" height="51.3"/>
<rect id="XMLID_328_" y="1.1" fill="#FFFFFF" width="51.3" height="51.3"/>
<rect id="XMLID_325_" x="1311.1" y="124.8" fill="#FFFFFF" width="112.1" height="4.5"/>
<rect id="XMLID_322_" x="1311.1" y="78" fill="#FFFFFF" width="112.1" height="4.5"/>
<rect id="XMLID_319_" x="1311.1" y="1.1" fill="#FFFFFF" width="112.1" height="4.5"/>
<rect id="XMLID_316_" x="1311.1" y="78" fill="#FFFFFF" width="51.3" height="51.3"/>
<rect id="XMLID_313_" x="1371.9" y="78" fill="#FFFFFF" width="51.3" height="51.3"/>
<rect id="XMLID_310_" x="1371.9" y="26.8" fill="#FFFFFF" width="51.3" height="51.3"/>
<rect id="XMLID_307_" x="1371.9" y="1.1" fill="#FFFFFF" width="51.3" height="51.3"/>
<rect id="XMLID_304_" x="1311.1" y="1.1" fill="#FFFFFF" width="51.3" height="51.3"/>
<rect id="XMLID_301_" x="1737.2" y="29" fill="#FFFFFF" width="112.1" height="4.5"/>
<rect id="XMLID_298_" x="1184.6" y="1.1" fill="#FFFFFF" width="112.1" height="4.5"/>
<rect id="XMLID_295_" x="1184.6" y="1.1" fill="#FFFFFF" width="51.3" height="128.2"/>
<rect id="XMLID_292_" x="1245.4" y="78" fill="#FFFFFF" width="51.3" height="51.3"/>
<rect id="XMLID_289_" x="1245.4" y="26.8" fill="#FFFFFF" width="51.3" height="51.3"/>
<rect id="XMLID_286_" x="1245.4" y="1.1" fill="#FFFFFF" width="51.3" height="51.3"/>
<rect id="XMLID_283_" x="310.9" y="124.8" fill="#FFFFFF" width="112.1" height="4.5"/>
<rect id="XMLID_280_" x="310.9" y="1.1" fill="#FFFFFF" width="112.1" height="4.5"/>
<rect id="XMLID_277_" x="310.9" y="78" fill="#FFFFFF" width="51.3" height="51.3"/>
<rect id="XMLID_274_" x="371.7" y="78" fill="#FFFFFF" width="51.3" height="51.3"/>
<rect id="XMLID_271_" x="371.7" y="26.8" fill="#FFFFFF" width="51.3" height="51.3"/>
<rect id="XMLID_268_" x="371.7" y="1.1" fill="#FFFFFF" width="51.3" height="51.3"/>
<rect id="XMLID_265_" x="310.9" y="1.1" fill="#FFFFFF" width="51.3" height="51.3"/>
<rect id="XMLID_262_" x="310.9" y="39.6" fill="#FFFFFF" width="51.3" height="51.3"/>
<rect id="XMLID_259_" x="370" y="1.1" fill="#FFFFFF" width="112.1" height="4.5"/>
<rect id="XMLID_256_" x="430.8" y="78" fill="#FFFFFF" width="51.3" height="51.3"/>
<rect id="XMLID_253_" x="430.8" y="26.8" fill="#FFFFFF" width="51.3" height="51.3"/>
<rect id="XMLID_250_" x="430.8" y="1.1" fill="#FFFFFF" width="51.3" height="51.3"/>
<rect id="XMLID_247_" x="2248.4" y="124.8" fill="#FFFFFF" width="112.1" height="4.5"/>
<rect id="XMLID_244_" x="2248.4" y="1.1" fill="#FFFFFF" width="112.1" height="4.5"/>
<rect id="XMLID_241_" x="2248.4" y="78" fill="#FFFFFF" width="51.3" height="51.3"/>
<rect id="XMLID_238_" x="2309.2" y="78" fill="#FFFFFF" width="51.3" height="51.3"/>
<rect id="XMLID_235_" x="2309.2" y="26.8" fill="#FFFFFF" width="51.3" height="51.3"/>
<rect id="XMLID_232_" x="2309.2" y="1.1" fill="#FFFFFF" width="51.3" height="51.3"/>
<rect id="XMLID_229_" x="2248.4" y="1.1" fill="#FFFFFF" width="51.3" height="51.3"/>
<rect id="XMLID_226_" x="2248.4" y="39.6" fill="#FFFFFF" width="51.3" height="51.3"/>
<rect id="XMLID_223_" x="2307.5" y="1.1" fill="#FFFFFF" width="112.1" height="4.5"/>
<rect id="XMLID_220_" x="2368.3" y="78" fill="#FFFFFF" width="51.3" height="51.3"/>
<rect id="XMLID_217_" x="2368.3" y="26.8" fill="#FFFFFF" width="51.3" height="51.3"/>
<rect id="XMLID_214_" x="2368.3" y="1.1" fill="#FFFFFF" width="51.3" height="51.3"/>
<rect id="XMLID_211_" x="1059" y="124.8" fill="#FFFFFF" width="112.1" height="4.5"/>
<rect id="XMLID_208_" x="1059" y="1.1" fill="#FFFFFF" width="112.1" height="4.5"/>
<rect id="XMLID_205_" x="1059" y="78" fill="#FFFFFF" width="51.3" height="51.3"/>
<rect id="XMLID_202_" x="1059" y="1.1" fill="#FFFFFF" width="51.3" height="25.6"/>
<polygon id="XMLID_199_" fill="#FFFFFF" points="1119.8,1.1 1119.8,26.8 1119.8,41.6 1109,52.4 1119.8,63.2 1119.8,63.2 1119.8,78 
	1119.8,129.3 1171,129.3 1171,78 1171,63.2 1160.3,52.4 1171,41.6 1171,26.8 1171,1.1 "/>
<rect id="XMLID_196_" x="1872.4" y="124.8" fill="#FFFFFF" width="112.1" height="4.5"/>
<rect id="XMLID_193_" x="1872.4" fill="#FFFFFF" width="112.1" height="4.5"/>
<rect id="XMLID_190_" x="1872.4" y="78" fill="#FFFFFF" width="51.3" height="51.3"/>
<rect id="XMLID_187_" x="1872.4" y="1.1" fill="#FFFFFF" width="51.3" height="25.6"/>
<polygon id="XMLID_184_" fill="#FFFFFF" points="1933.2,0 1933.2,26.8 1933.2,41.6 1922.4,52.4 1933.2,63.2 1933.2,63.2 1933.2,78 
	1933.2,129.3 1984.5,129.3 1984.5,78 1984.5,63.2 1973.7,52.4 1984.5,41.6 1984.5,26.8 1984.5,0 "/>
<rect id="XMLID_181_" x="492.1" y="125.9" fill="#FFFFFF" width="114" height="4.6"/>
<polygon id="XMLID_178_" fill="#FFFFFF" points="602.6,48.6 501.8,21.6 501.8,26.4 601.4,53.1 "/>
<rect id="XMLID_175_" x="492.1" y="78.3" fill="#FFFFFF" width="52.2" height="52.2"/>
<polygon id="XMLID_172_" fill="#FFFFFF" points="553.9,40.4 501.8,26.4 501.8,0 553.9,0 "/>
<rect id="XMLID_169_" x="553.9" y="78.3" fill="#FFFFFF" width="52.2" height="52.2"/>
<polygon id="XMLID_166_" fill="#FFFFFF" points="606.1,78.3 553.9,78.3 553.9,35.6 606.1,49.6 "/>
<rect id="XMLID_163_" x="934.6" y="125.9" fill="#FFFFFF" width="114" height="4.6"/>
<polygon id="XMLID_160_" fill="#FFFFFF" points="1045.1,48.6 944.3,21.6 944.3,26.4 1043.9,53.1 "/>
<rect id="XMLID_157_" x="934.6" y="78.3" fill="#FFFFFF" width="52.2" height="52.2"/>
<polygon id="XMLID_154_" fill="#FFFFFF" points="996.4,40.4 944.3,26.4 944.3,0 996.4,0 "/>
<rect id="XMLID_151_" x="996.4" y="78.3" fill="#FFFFFF" width="52.2" height="52.2"/>
<polygon id="XMLID_148_" fill="#FFFFFF" points="1048.6,78.3 996.4,78.3 996.4,35.6 1048.6,49.6 "/>
<rect id="XMLID_145_" x="1436.6" y="125.9" fill="#FFFFFF" width="114" height="4.6"/>
<polygon id="XMLID_142_" fill="#FFFFFF" points="1547,48.6 1446.2,21.6 1446.2,26.4 1545.9,53.1 "/>
<rect id="XMLID_139_" x="1436.6" y="78.3" fill="#FFFFFF" width="52.2" height="52.2"/>
<polygon id="XMLID_136_" fill="#FFFFFF" points="1498.4,40.4 1446.2,26.4 1446.2,0 1498.4,0 "/>
<rect id="XMLID_133_" x="1498.4" y="78.3" fill="#FFFFFF" width="52.2" height="52.2"/>
<polygon id="XMLID_130_" fill="#FFFFFF" points="1550.6,78.3 1498.4,78.3 1498.4,35.6 1550.6,49.6 "/>
<rect id="XMLID_127_" x="2122.4" y="124.8" fill="#FFFFFF" width="112.1" height="4.5"/>
<polygon id="XMLID_124_" fill="#FFFFFF" points="2208.8,43.4 2131.9,22.8 2131.9,27.4 2208.8,48 "/>
<polygon id="XMLID_121_" fill="#FFFFFF" points="2183.2,41.2 2131.9,27.4 2131.9,1.1 2183.2,1.1 "/>
<polygon id="XMLID_118_" fill="#FFFFFF" points="2208.8,78 2157.5,78 2157.5,29.7 2208.8,43.4 "/>
<rect id="XMLID_115_" x="2122.4" y="78" fill="#FFFFFF" width="112.1" height="4.5"/>
<rect id="XMLID_112_" x="2122.4" y="78" fill="#FFFFFF" width="51.3" height="51.3"/>
<rect id="XMLID_109_" x="2183.2" y="78" fill="#FFFFFF" width="51.3" height="51.3"/>
<rect id="XMLID_106_" x="1748.8" y="125.1" fill="#FFFFFF" width="112.1" height="4.5"/>
<rect id="XMLID_103_" x="1758.3" y="0" fill="#FFFFFF" width="51.3" height="62.9"/>
<rect id="XMLID_100_" x="1748.8" y="78.4" fill="#FFFFFF" width="51.3" height="51.3"/>
<rect id="XMLID_97_" x="1809.6" y="58.4" fill="#FFFFFF" width="51.3" height="71.3"/>
<rect id="XMLID_94_" x="814.4" y="124.8" fill="#FFFFFF" width="112.1" height="4.5"/>
<rect id="XMLID_91_" x="814.4" y="52.4" fill="#FFFFFF" width="112.1" height="4.5"/>
<rect id="XMLID_88_" x="814.4" y="78" fill="#FFFFFF" width="51.3" height="51.3"/>
<rect id="XMLID_85_" x="875.2" y="78" fill="#FFFFFF" width="51.3" height="51.3"/>
<rect id="XMLID_82_" x="814.4" y="52.4" fill="#FFFFFF" width="51.3" height="51.3"/>
<rect id="XMLID_79_" x="875.2" y="52.4" fill="#FFFFFF" width="51.3" height="51.3"/>
<rect id="XMLID_76_" x="844.8" y="26.8" fill="#FFFFFF" width="51.3" height="25.6"/>
<polygon id="XMLID_73_" fill="#FFFFFF" points="896.1,26.8 844.8,26.8 826.8,1.1 878.1,1.1 "/>
<polygon id="XMLID_70_" fill="#FFFFFF" points="719.3,130.5 668.1,130.5 668.1,88.2 719.3,102 "/>
<rect id="XMLID_67_" x="677.6" y="2.3" fill="#FFFFFF" width="51.3" height="51.3"/>
<polygon id="XMLID_64_" fill="#FFFFFF" points="668.1,88.2 616.8,79.2 616.8,27.9 668.1,27.9 "/>
<rect id="XMLID_61_" x="616.8" y="2.3" fill="#FFFFFF" width="51.3" height="51.3"/>
<rect id="XMLID_58_" x="616.8" y="2.3" fill="#FFFFFF" width="112.1" height="4.5"/>
<rect id="XMLID_49_" x="616.8" y="49" fill="#FFFFFF" width="112.1" height="4.5"/>
<polygon id="XMLID_44_" fill="#FFFFFF" points="693.7,95.1 616.8,74.5 616.8,79.2 693.7,99.8 "/>
<g id="XMLID_36_">
	<polygon id="XMLID_4_" fill="#FFFFFF" points="248.3,78.2 238.7,78.2 187.2,78.2 177.7,78.2 177.7,40.7 229.2,26.9 229.2,0.8 
		177.7,0.8 177.7,36 126.1,49.8 126.1,78.1 127.1,78.2 126.2,78.2 126.2,129.6 177.7,129.6 177.7,82.7 187.2,82.7 187.2,129.6 
		238.7,129.6 238.7,82.7 248.3,82.7 248.3,129.6 299.8,129.6 299.8,78.2 299.8,78.2 	"/>
</g>
<g id="XMLID_21_">
	<polygon id="XMLID_3_" fill="#FFFFFF" points="1685.7,78.2 1676.1,78.2 1624.6,78.2 1615.1,78.2 1615.1,40.7 1666.6,26.9 
		1666.6,0.8 1615.1,0.8 1615.1,36 1563.6,49.8 1563.6,78.1 1564.5,78.2 1563.6,78.2 1563.6,129.6 1615.1,129.6 1615.1,82.7 
		1624.6,82.7 1624.6,129.6 1676.1,129.6 1676.1,82.7 1685.7,82.7 1685.7,129.6 1737.2,129.6 1737.2,78.2 1737.2,78.2 	"/>
</g>
</svg>
