<?xml version="1.0" encoding="utf-8"?>
<!-- Generator: Adobe Illustrator 20.1.0, SVG Export Plug-In . SVG Version: 6.00 Build 0)  -->
<!DOCTYPE svg PUBLIC "-//W3C//DTD SVG 1.1//EN" "http://www.w3.org/Graphics/SVG/1.1/DTD/svg11.dtd" [
	<!ENTITY ns_extend "http://ns.adobe.com/Extensibility/1.0/">
	<!ENTITY ns_ai "http://ns.adobe.com/AdobeIllustrator/10.0/">
	<!ENTITY ns_graphs "http://ns.adobe.com/Graphs/1.0/">
	<!ENTITY ns_vars "http://ns.adobe.com/Variables/1.0/">
	<!ENTITY ns_imrep "http://ns.adobe.com/ImageReplacement/1.0/">
	<!ENTITY ns_sfw "http://ns.adobe.com/SaveForWeb/1.0/">
	<!ENTITY ns_custom "http://ns.adobe.com/GenericCustomNamespace/1.0/">
	<!ENTITY ns_adobe_xpath "http://ns.adobe.com/XPath/1.0/">
]>
<svg version="1.1" id="Layer_1" xmlns:x="&ns_extend;" xmlns:i="&ns_ai;" xmlns:graph="&ns_graphs;"
	 xmlns="http://www.w3.org/2000/svg" xmlns:xlink="http://www.w3.org/1999/xlink" x="0px" y="0px" viewBox="0 0 406 406"
	 style="enable-background:new 0 0 406 406;" xml:space="preserve">
<switch>

	<g i:extraneous="self">
		<g>
			<path d="M346.1,328.2c-3,1.3-5.9,2.8-8.9,4c-19.5,8-39.6,10.8-60.2,6.1c-35.8-8.1-60.1-29.9-73.4-63.9
				c-7.5-19.2-8.5-39.2-4.9-59.4c0.6-3.4,1.5-6.8,2.2-10.2l0.6-2.5c-1.6,1-2.8,2-3.1,2.4c-4.7,5.3-9.8,10.2-13.9,16
				c-19.8,27.5-23.2,57.1-8.7,87.9c12.9,27.5,34.5,46.1,62.9,56.7c19,7.1,38.5,8.4,58.1,2.3c21.5-6.6,37.5-20.6,50.1-38.8
				c0.1-0.2,0.1-0.5,0.2-1C346.5,328.1,346.3,328.1,346.1,328.2z"/>
			<path d="M391,168c-0.1-0.3-0.4-0.5-0.8-1.2c-0.2,0.9-0.4,1.4-0.5,1.9c-1.6,5.6-2.8,11.5-5,16.9c-15.2,37.9-42.9,59.9-83.6,64.9
				c-14.5,1.8-28.6-0.1-42.4-4.7c-22.6-7.5-40.5-21.4-54.9-40.1c-0.3-0.4-0.5-0.8-0.8-1.2l-1.6-2c-0.3,1.6-0.1,3.5,0,4
				c0.7,7.8,2,15.4,4.3,22.8c6.7,22.4,19.7,39.9,40.3,51.2c16.3,8.9,33.9,12.1,52.4,11.1c23.3-1.3,44.5-8.7,63.1-23
				c13.4-10.3,23.4-23.2,29.2-39.1C398.2,209.1,397.2,188.5,391,168z"/>
			<path d="M352.2,105.2c-2-15.8-7.8-30.1-17.8-42.6c-11.1-14-25.6-23.3-42-29.9c-0.2-0.1-0.4,0-1-0.1c0.5,0.8,0.8,1.3,1.2,1.7
				c2.8,3.9,5.9,7.7,8.4,11.7c14.3,22.7,19.9,47.3,14.4,73.6c-7.4,35.4-28.7,59.8-61.6,74.2c-15.3,6.7-31.5,9.2-48.1,8.8
				c-0.6,0-1.2-0.1-1.8-0.1l-2.4-0.1c0.7,0.8,2.4,2.2,2.7,2.4c6.6,4.4,13.5,8.1,20.8,11.1c13.5,5.5,27.5,8,42.1,6.4
				c17-1.8,32-8.6,45.3-19.3C339.8,180.8,357,142,352.2,105.2z"/>
			<path d="M266,85.3c-8.5-26.1-23.6-47.2-47.2-61.6c-15.9-9.7-33.3-13.7-52-11.9c-14.6,1.4-28.1,6.3-40.8,13.5
				c-0.3,0.2-0.6,0.5-0.9,0.7c0.7,0.4,1.3,0.5,1.9,0.5c8.6-0.1,17.1,0.7,25.5,2.5c18.5,4,35,12.1,48.5,25.6
				c25.9,25.9,35,57.2,28.5,93c-3.6,19.9-12.9,37.2-25.8,52.6c-0.2,0.2-2.1,2.3-2.1,2.3c1.5,0,3.1-0.4,3.4-0.5
				c9.7-3.1,18.9-7.2,27.4-12.8c23.3-15.4,36.1-37.2,38.4-65C271.9,110.9,270.1,97.9,266,85.3z"/>
			<path d="M209.7,147.8c-3.2-20.1-12.7-36.9-28.2-49.9c-28.2-23.6-60.7-31.3-96.6-24c-18.8,3.9-34.7,13.2-47.3,27.8
				c-12.3,14.3-18.8,31.2-21.7,49.6c-0.1,0.3,0,0.7,0.1,1.5c0.7-0.8,1-1.2,1.4-1.6c6.2-8,13.2-15.1,21.2-21.1
				c22.4-16.7,47.6-23.3,75.2-19c21.5,3.3,40.1,13,55.6,28.2c14.3,14,23.7,30.9,29.1,50.1c1,3.6,1.8,7.2,2.7,11.1l0.3,1.9
				c1.4-2.8,3.5-8.2,4.5-11.5C210.4,176.8,212.1,162.4,209.7,147.8z"/>
			<path d="M200.8,200.1c-0.2-0.4-0.5-0.7-0.7-1.1c-6.2-10.4-13.6-19.8-22.8-27.6c-18.3-15.5-39.5-21.9-63.4-19.5
				c-13.4,1.4-25.9,5.5-37.7,12c-22.1,12.2-38.9,29.4-49.3,52.5c-7.3,16.3-9.7,33.4-6.4,51.1c3.5,18.7,12.7,34.4,25.4,48.2
				c0.2,0.2,0.5,0.4,0.9,0.6c0.1-0.3,0.2-0.5,0.2-0.6c-0.1-0.4-0.2-0.8-0.3-1.3c-3.5-14.5-4.4-29.1-1.9-43.8
				c4-23.4,14.9-43.1,32.9-58.5c21.1-18,45.8-25.9,73.3-24.6c14.9,0.7,29.1,4.6,42.7,10.9c1.9,0.9,3.8,1.9,5.7,2.8l2.3,1.1
				C201.2,201,200.8,200.2,200.8,200.1z"/>
			<path d="M198.1,201.6c-11.6-1.6-23.2-1.7-34.7,0.4c-22.3,4.1-40.2,15.2-53.4,33.7c-11,15.4-16.6,32.7-18.1,51.4
				c-1.6,19.5,1.3,38.2,9.4,56c7.8,17,19.4,30.7,35.7,40.1c17.2,10,36,12.9,55.6,11.7c0.5,0,1-0.2,1.4-0.3c0-0.1,0-0.3,0-0.4
				c-0.5-0.3-1.1-0.6-1.6-0.8c-9.2-4.3-17.7-9.6-25.4-16.2c-19.2-16.5-31-37.2-34.3-62.4c-3.2-24,1.9-46.4,14.5-67.1
				c9.6-15.8,22.7-28.1,38.6-37.4c4.4-2.6,9.4-5.1,13.8-7.4l2-0.6C201.9,202.5,198.6,201.6,198.1,201.6z"/>
		</g>
	</g>
</switch>
</svg>
